<?xml version="1.0" encoding="utf-8"?>
<!-- Generator: Adobe Illustrator 19.0.1, SVG Export Plug-In . SVG Version: 6.00 Build 0)  -->
<svg version="1.1"
	 id="svg3104" inkscape:export-xdpi="33.831287" sodipodi:docbase="/home/nfs/amfernandez/Informatica/inkscape" sodipodi:modified="TRUE" inkscape:export-ydpi="33.831287" inkscape:export-filename="/home/nfs/amfernandez/Informatica/inkscape/adidas.png" inkscape:version="0.45" inkscape:output_extension="org.inkscape.output.svg.inkscape" sodipodi:docname="adidas.svg" sodipodi:version="0.32" xmlns:dc="http://purl.org/dc/elements/1.1/" xmlns:rdf="http://www.w3.org/1999/02/22-rdf-syntax-ns#" xmlns:svg="http://www.w3.org/2000/svg" xmlns:cc="http://web.resource.org/cc/" xmlns:inkscape="http://www.inkscape.org/namespaces/inkscape" xmlns:sodipodi="http://sodipodi.sourceforge.net/DTD/sodipodi-0.dtd" xmlns:ns="http://creativecommons.org/ns#"
	 xmlns="http://www.w3.org/2000/svg" xmlns:xlink="http://www.w3.org/1999/xlink" x="0px" y="0px" viewBox="-7 98.5 595.3 511.2"
	 style="enable-background:new -7 98.5 595.3 511.2;" xml:space="preserve">
<style type="text/css">
	.st0{fill:#91776E;}
</style>
<defs>
	
	
		<inkscape:perspective  inkscape:persp3d-origin="372.04724 : 350.78739 : 1" sodipodi:type="inkscape:persp3d" inkscape:vp_y="0 : 1000 : 0" inkscape:vp_z="744.09448 : 526.18109 : 1" id="perspective3112" inkscape:vp_x="0 : 526.18109 : 1">
		</inkscape:perspective>
	
		<inkscape:perspective  inkscape:persp3d-origin="0.5 : 0.33333333 : 1" sodipodi:type="inkscape:persp3d" inkscape:vp_y="0 : 1000 : 0" inkscape:vp_z="1 : 0.5 : 1" id="perspective3184" inkscape:vp_x="0 : 0.5 : 1">
		</inkscape:perspective>
	
		<inkscape:perspective  inkscape:persp3d-origin="0.5 : 0.33333333 : 1" sodipodi:type="inkscape:persp3d" inkscape:vp_y="0 : 1000 : 0" inkscape:vp_z="1 : 0.5 : 1" id="perspective3974" inkscape:vp_x="0 : 0.5 : 1">
		</inkscape:perspective>
</defs>
<sodipodi:namedview  inkscape:snap-bbox-midpoints="false" inkscape:bbox-nodes="false" inkscape:bbox-paths="false" inkscape:snap-bbox="true" inkscape:window-maximized="1" inkscape:window-y="24" inkscape:window-x="0" inkscape:window-height="949" inkscape:window-width="1272" inkscape:current-layer="layer1" inkscape:document-units="mm" inkscape:pageshadow="2" inkscape:pageopacity="0.0" inkscape:snap-bbox-edge-midpoints="false" showgrid="false" pagecolor="#ffffff" bordercolor="#666666" borderopacity="1.0" inkscape:cx="372.04724" inkscape:zoom="0.64711561" inkscape:cy="526.18109" id="base">
	
		<inkscape:grid  type="xygrid" snapvisiblegridlinesonly="true" units="mm" id="grid3114" spacingy="10mm" empspacing="1" enabled="true" spacingx="10mm" visible="true">
		</inkscape:grid>
</sodipodi:namedview>
<g id="layer3" inkscape:groupmode="layer" inkscape:label="original">
</g>
<g id="layer1" inkscape:groupmode="layer" inkscape:label="Capa 1">
	<path id="path3988" class="st0" d="M282.8,98.5v2.2c-44,48.5-70.7,112.6-70.7,182.9c0,11.9,0.8,23.5,2.2,35h136.9
		c1.6-12.1,2.5-24.3,2.5-36.8C353.8,211.3,327,147.1,282.8,98.5z M544.4,200.8l-1.3,1.6c-60.8,7.8-118.9,37.1-161.7,87.1
		c-8,9.3-15.2,19.1-21.6,29.1h159.8C537.4,281.4,545.6,241,544.4,200.8z M21.7,203.5L23,205c1.9,39.3,11.2,78.2,27.8,113.6h154.9
		c-8-13-17.1-25.4-27.4-37C134.8,232.2,78.6,206.3,21.7,203.5z M60.8,338c3.9,6.9,8.1,13.6,12.6,20.1h422.7
		c4.7-6.5,9.1-13.2,13.2-20.1H348.7c-0.4,0.8-0.8,1.6-1.2,2.4c0.2-0.8,0.3-1.6,0.5-2.4H217.6c0.2,1.1,0.4,2.3,0.7,3.4
		c-0.6-1.1-1.1-2.3-1.7-3.4H60.8z M89.7,379.3c1.1,1.3,2.2,2.6,3.3,3.8c4.9,5.6,10,10.8,15.2,15.8h351.2
		c6.8-6.1,13.4-12.6,19.7-19.6H89.7z M131.2,418.3c36.1,26.6,77.1,41,118.5,43l-1.3-1.5c-0.7-13.9-2.3-27.8-4.8-41.5H131.2z
		 M247.8,418.3c10,17.5,21.8,33.7,35.2,48.6v-2.2c12.9-14.2,24.3-29.7,33.9-46.4H247.8z M322.8,418.3c-2.2,14.9-3,29.9-2.6,44.8
		l1.3-1.5c40.1-5.1,79.1-19.6,113.2-43.3H322.8z M190.1,489.4v37.4c-6.2-6.9-16.5-11.1-27.7-11.1c-24.8,0-44.3,20.8-44.3,47.4
		c0,26.2,19.4,46.6,44.5,46.6c12,0,20.8-4,29.3-13.6v11.5h19.5V489.4H190.1z M227.6,489.4v20h21.3v-20H227.6z M334.1,489.4v37.4
		c-6.2-6.9-16.5-11.1-27.7-11.1c-24.8,0-44.3,20.8-44.3,47.4c0,26.2,19.4,46.6,44.5,46.6c12,0,20.8-4,29.3-13.6v11.5h19.5V489.4
		H334.1z M57.6,516.9c-26.2,0-45.1,19.7-45.1,46.7c0,26.7,18.7,46.1,44.7,46.1c12.5,0,21-4,29.4-13.6v11.5h19.5V519H86.6v11.8
		C79.2,521.1,70.4,516.9,57.6,516.9z M412.9,516.9c-26.2,0-45.1,19.7-45.1,46.7c0,26.7,18.7,46.1,44.7,46.1c12.5,0,21-4,29.4-13.6
		v11.5h19.5V519h-19.5v11.8C434.5,521.1,425.7,516.9,412.9,516.9z M504.2,516.9c-16.5,0-29.4,11.8-29.4,27c0,13,7,20.3,24.6,26.2
		c8.2,2.7,8.8,3,11.1,4.5c2.6,1.6,4,4,4,6.9c0,5-4.2,8.6-9.6,8.6c-6.2,0-9.8-3.2-11.8-10.7h-21.4c1,8.6,2.4,13.1,5.9,17.9
		c5.8,7.7,15.8,12.3,26.6,12.3c17.8,0,31.7-13.3,31.7-30.2c0-7.7-2.9-14.1-8.3-18.4c-3.4-2.9-8.6-5.1-16.3-7.5
		c-8.6-2.7-8.6-2.7-10.7-3.7c-2.9-1.3-4.3-3.4-4.3-5.9c0-4.3,3.5-7.5,8.2-7.5c4.5,0,7.4,2.4,8.3,7h20.8c-0.3-7.5-2.1-12-6.4-16.8
		C521.4,520.4,513,516.9,504.2,516.9z M227.6,519v88.6h21.3V519H227.6z M165.4,535.3c14.9,0,26.2,12,26.2,27.5
		c0,15.4-11.4,27.3-25.8,27.3c-14.9,0-26.4-12.3-26.4-28C139.5,547.1,150.9,535.3,165.4,535.3z M309.5,535.3
		c14.9,0,26.2,12,26.2,27.5c0,15.4-11.4,27.3-25.8,27.3c-14.9,0-26.4-12.3-26.4-28C283.6,547.1,294.9,535.3,309.5,535.3z
		 M59.8,536.4c15.2,0,26.1,11.3,26.1,27.5c0,6.4-2.5,13.8-6.4,18.2c-4.3,5.1-11.2,8-19.4,8c-15.5,0-26.2-10.5-26.2-26.1
		C33.9,547.9,44.6,536.4,59.8,536.4z M415.1,536.4c15.2,0,26.1,11.3,26.1,27.5c0,6.4-2.6,13.8-6.4,18.2c-4.3,5.1-11.2,8-19.3,8
		c-15.5,0-26.2-10.5-26.2-26.1C389.2,547.9,399.9,536.4,415.1,536.4z"/>
</g>
</svg>
