<?xml version="1.0" encoding="utf-8"?>
<!-- Generator: Adobe Illustrator 19.0.1, SVG Export Plug-In . SVG Version: 6.00 Build 0)  -->
<svg version="1.1"
	 id="svg2" inkscape:version="0.46" inkscape:output_extension="org.inkscape.output.svg.inkscape" sodipodi:docname="apple_large.svg" sodipodi:version="0.32" xmlns:dc="http://purl.org/dc/elements/1.1/" xmlns:rdf="http://www.w3.org/1999/02/22-rdf-syntax-ns#" xmlns:svg="http://www.w3.org/2000/svg" xmlns:cc="http://creativecommons.org/ns#" xmlns:inkscape="http://www.inkscape.org/namespaces/inkscape" xmlns:sodipodi="http://sodipodi.sourceforge.net/DTD/sodipodi-0.dtd"
	 xmlns="http://www.w3.org/2000/svg" xmlns:xlink="http://www.w3.org/1999/xlink" x="0px" y="0px"
	 viewBox="115.6 114.2 781.5 617.3" style="enable-background:new 115.6 114.2 781.5 617.3;" xml:space="preserve">
<style type="text/css">
	.st0{fill:#91776E;stroke:#91776E;}
</style>
<g id="layer1" transform="translate(0,-62.35975)" inkscape:groupmode="layer" inkscape:label="Layer 1">
	<g id="g3111" transform="matrix(0,2.2902686,-2.2902686,0,528.17948,254.53374)">
		<g id="g4011" transform="matrix(0.50858051,-0.2936291,0.2936291,0.50858051,-15.116722,123.40113)">
			<g id="g3220" transform="matrix(2.6305045,1.1394143e-8,-1.1394143e-8,2.6305045,-267.63451,48.480657)">
				<g id="g3224" transform="translate(-23.905887,-45.690211)">
					<path id="path2446" sodipodi:nodetypes="csssc" class="st0" d="M170.1-74.2c-12.7,26.6,9.7,47.9,16.5,50.3
						c0.5,0.2,0.3,0.2,0.5-0.2c11.5-21.5-4.8-45.7-16.6-49.9C170.1-74.2,170.1-74.3,170.1-74.2z"/>
					<path id="path3218" sodipodi:nodetypes="csccsssssc" class="st0" d="M188.9-14.6c8.4-5.7,8.5-9.4,9.3-17.4
						c1.9-18,14.3-40,38.1-39.8c2.2,29.3,31.5,47.2,61.3,31.3c19.7,18,21.9,35.1,24.2,42.6c2.2,7.1-5.7,20.6-12.2,23.6
						c-6.8,3.2-14.9,17.6-14,24.6c1,8.8-6.7,18.5-9,19.6c-47.5,22.9-135.8-9.2-113.4-67.8c3.9-10.1,15.6-16.9,15.6-16.9"/>
				</g>
			</g>
		</g>
	</g>
</g>
</svg>
