<?xml version="1.0" encoding="utf-8"?>
<!-- Generator: Adobe Illustrator 19.0.1, SVG Export Plug-In . SVG Version: 6.00 Build 0)  -->
<svg version="1.1" id="Layer_1" xmlns:svg="http://www.w3.org/2000/svg"
	 xmlns="http://www.w3.org/2000/svg" xmlns:xlink="http://www.w3.org/1999/xlink" x="0px" y="0px" viewBox="94 266 800 262"
	 style="enable-background:new 94 266 800 262;" xml:space="preserve">
<style type="text/css">
	.st0{fill:#91776E;}
</style>
<g id="g3">
	<path id="path5" class="st0" d="M401.2,494.6c-29.8-19.2-70.2-22.5-135.3-4.5c-69.5,16.3-92.6,26.8-123,5.8
		c-11.7-10.3-15.9-26.9-12.7-50.9c7.3-39,26.9-76.6,61.7-118.2c19.4-21.7,37.5-40.3,61.3-47.7c18.2-4.7,16.5,9.7,14.3,11.7
		c-2.3,0-6.2,0.4-9.3,2.3c-2.5,1.9-9.2,8.1-9.6,16.3c-0.5,12.7,12.6,10,18.2,3.1c6.1-7.8,15.1-22.8,8-36.8c-3-5-8.1-8.4-14.5-9.6
		c-21.8-1.2-42.1,9.1-60.8,20.6c-41,28.5-73.8,67.9-92.3,111.1c-10.7,26.1-20.4,63.4-5.9,93.7c11.2,21.1,34.5,32.3,62.3,29.9
		c19.5-2,43-8.3,58.9-12.1c15.8-3.8,97-31.7,123.6,16.8c0,0,8.9-17.2,31-17.6c18.2-1.7,44.5,5.3,63.6,19.3
		C434.4,518.4,416.3,504.3,401.2,494.6L401.2,494.6z"/>
	<path id="path7" class="st0" d="M274.2,331.7c-15.2-10-45.7,9.1-70.1,41.7c-22.3,29.3-32,63.3-21.5,79
		c15.6,18.5,44.6-8.4,56.9-22.8l1.6-1.7c8.4-9,14.9-19.8,21.1-30.2c0,0,5.8-9.5,6-10c3.6-0.7,7.8-1.7,12.7-3.1
		c-0.1,0.2-18.5,31.2-16.6,46.5c0.6,4.7,0.1,21.8,16.9,27c22.3,3.7,40.1-13.5,55.8-28.9c0,0,2.7-2.6,4.2-4c-0.4,1.5-0.9,3.6-0.9,3.6
		c-6.5,22.7,2.3,27.4,7.8,29.2c16.6,4.8,36.5-19.3,36.5-19.3c-0.5,7.6-2,13.9,6,19c7.6,2.7,15.2-1.4,21.1-5.3
		c21-14.8,37.9-37.9,51.5-57.9h-8.7c-0.1,0-21.5,31-35.4,37.7c0,0-2.5,1.3-4,0.3c-1.8-1.5-1.1-4.7,0-7c0.1-0.1,53.6-93,53.6-93
		h-25.3c0,0-2.8,4.5-3,4.8c-0.2-0.1-0.6-0.9-0.9-1.3c-15.7-21.7-51.1,11.7-77.8,50.3c-10.3,14.9-23.4,31.6-36.9,43.7
		c0,0-20.1,18.4-28.7,5.2c-3.1-5.6-2.2-13.7-0.4-19c10-28.5,27.2-54.3,46.8-69.9c5.5-4.3,11.6-5.6,14.5-3.7c2.8,1.7,3.3,5.9,1.5,8.7
		c-4.6-0.1-8.2,1.2-11.2,4.3c-5.9,6.1-7.9,12.1-6,17.6c9.1,12.9,27.1-12.6,26.2-28.1c-0.3-5.6-3.3-10.8-7.7-13.4
		c-6.6-4-16.7-2.9-23.2,0.2c-8.7,3.3-22.5,14.8-30.6,23.7c-10.1,11.2-27.6,23.6-33,22.2C274.9,373.1,289.6,343,274.2,331.7
		L274.2,331.7z M396,376.2c4.9-6.8,19.2-25,22.7-28.1c11.7-10.3,16.4-5.8,16.8-2.6c-11,19.6-23.9,42.1-36,62.3
		c0-0.1-3.8,5.8-3.8,5.8c-5.4,8.2-10.8,15.2-19.6,20.1c-1.3,0.4-3.3,0.5-4.7-0.5c-1.7-1.1-2.3-2.9-2.1-4.8
		C369.8,422.1,376.2,402.9,396,376.2L396,376.2z M258.5,388c0,0-0.2,0.7-0.3,0.9c0,0-11,17.9-11,17.9c-6.6,8.9-14.9,20-25.3,25.3
		c-3.1,1-7.3,1.7-9.5-1c-4.6-5.5-2.2-13.1-0.3-19.2l0.7-2.2c5.5-14.9,14.2-28.1,22.7-40.3c0.1-0.1,0.3-0.1,0.4-0.1
		c0,0.1,0.1,0.1,0.1,0.2c5.3,10.2,15.3,15,22.8,17.2c0,0,0.1,0.1,0.1,0.2C258.9,387,258.8,387.3,258.5,388L258.5,388z M268.9,366.9
		c0,0.1-4.9,11.3-4.9,11.3c-0.7,0.6-1.8,0.3-3.1,0l-2.2-0.4c-6.8-2.1-12-6.7-13.6-12.1c-2.2-10.5,6.8-18.8,10.8-21.8
		c3.8-2.6,9.7-4,13.2-1.3c2.1,2.5,2.9,5.7,2.9,9.2C272.1,356.5,270.6,361.9,268.9,366.9L268.9,366.9z"/>
	<path id="path9" class="st0" d="M588.5,400.8c-2.4-5.3-8.2-8.6-14.4-8.3c-20,1.8-39.6,18.3-49.9,41.9c-5.4,12.1-8.3,22.2-10.3,38.1
		c6.2-7.2,18.9-19,33.3-25.4c0,0,2-15.3,12-28.9c3.8-5.6,11.4-14.7,19.9-12.3c7.4,2.5,4.8,23.1-5.1,43
		c-7.3,14.6-18.5,29.3-29.8,39.4c-10,8.5-24.8,18.7-37.7,10.8c-8.2-4.8-12.3-14.9-11.4-28c3.9-37,20.7-68.4,44.8-104.3
		c24.8-33.3,52.2-67.5,89.1-85.7c7.5-3.8,14.5-4.7,20.5-2.3c0,0-34.6,19-51.1,54.2c-4.2,8.9-10,21-4.2,31.7c3.1,5.6,8.5,6,12.9,5.7
		c20.2-4.7,33.3-23.6,44-40.8c6.2-13.1,11.7-26.1,11.7-40.6c0-1.8-0.1-4.1-0.2-5.9c9.7-5.1,29.5,4,29.5,4
		c15.5,5.1,48.4,30.4,59.6,35.2c5.4-6.3,14.3-15.8,19.4-20.6l-7.3-4.5c-11.6-7.1-23.9-13.8-36-20.5c-27.5-15-49.8-9.7-61.2-5.6
		c-4.5,1.6-8.6,3-8.6,3c-8.4-9.2-22.3-8.3-32.5-5.9c-36.7,10.5-70.8,36.2-107.3,80.8C491,384,474.4,414.2,465.5,444
		c-6.8,20.1-8.9,49.5,7.8,67c14.2,14.9,33,11.6,46.4,6.3c28.8-14.2,54.7-44.8,67.6-80C590.4,426.9,593.8,412.1,588.5,400.8
		L588.5,400.8z M654.8,290.5c-3.8,43.8-37.8,69.5-46.3,71.5c-5.1,1-13.8-1.2-6-19.6c11.4-24.7,31-45.7,51.9-56.5
		C654.9,287.7,654.9,288.9,654.8,290.5L654.8,290.5z"/>
	<path id="path11" class="st0" d="M856.6,296.1c-18.3,10.4-37.3,17.1-60.2,14.8c-6.4,7.2-12.6,14.6-18.3,22.2
		c32.2,8.2,66.4-10,85.5-27.4c20.2-17.5,30.5-39.5,30.5-39.5S878.9,283.4,856.6,296.1L856.6,296.1z"/>
	<polygon id="polygon13" class="st0" points="510.7,332.5 486.7,332.5 473.2,354.5 497.2,354.5 	"/>
	<path id="path15" class="st0" d="M796.2,496.6c-2.6,1.8-6.2,0.4-4.9-3.6c3.4-10.2,16.8-31.1,16.8-31.1l37.4-66.3H820
		c-1.2,2-3.8,6.6-3.8,6.6c-1.2-2-4.7-6.4-6.2-7.3c-6.3-4-15.4-2.1-21.8,1.5c-27.5,16.1-47.6,47.9-63.5,72.7c0,0-16.7,27.6-25.9,29.6
		c-7.2,0.6-6.5-9.2-6.2-11.4c2.8-16.4,9.3-32,15.8-46.1c13.3-9.2,28.5-21.3,42.3-34.5c29.9-28.6,55.2-61,58.9-68.3c0,0-4,0.8-8.7,1
		c-23,32.1-70.2,78.8-84.5,85.8c6.3-15.2,47.2-87.9,82-122.7l5.5-5.3c8.5-8.3,17.2-16.8,24.1-18.2c0.7-0.1,1.7,0,2.5,1.7
		c0.3,6.4-2.1,11.2-4.8,16.6l-3.9,7.9c0,0,5.5-1,9-2.2c4.2-7.8,8.8-16.6,7.1-27.1c-0.6-3.4-3-5.9-6.2-6.5
		c-10.4-2-21.7,5.7-30.8,11.9l-0.4,0.2c-46.8,36.7-86.3,89.5-120.9,161.7c-2.5,1.9-12.2,4.2-13.8,3.1c3.4-7,7.7-16.5,9.9-26.7
		c0.4-2.9,0.7-5.9,0.7-8.9c0-6.3-1.5-12.2-7.2-16.3c-6.6-3.3-14.8-1.8-20.3,0.7c-24.7,10.2-43.2,35.6-56.5,56.4
		c-7.2,13.2-14.3,27.4-16.3,43.7c-1.4,12.7,1.4,20.9,8.7,25c7.4,3.8,16.8-0.2,20.5-2.1c25-13.2,42.5-39.6,56.3-63.7
		c0.5-0.1,8.1-0.3,13.8-1.8c0.1,0,0.1,0,0.2,0.1c-0.3,1.1-3.3,9.9-3.3,9.9c-8.7,25.6-12.8,43-4.5,53.3c11.8,14.6,31.3-0.5,47.2-20.4
		c-3.4,23.9,9,27.6,18.4,25.8c10.8-2.9,22.9-14.5,28.5-20.4c-1.8,7-1.3,19.4,8.5,20.6c6.8,1.2,11.8-2.4,17.6-5.6
		c21-11.4,46.1-49.5,52.6-60.5h-8.5C822.8,469.5,811.1,487.9,796.2,496.6L796.2,496.6z M608,494c-1.3-2-1.8-4.1-1.8-6.5
		c-0.3-14.4,15.2-40,26.1-54c0,0,0,0,0,0c4.6,10,14.9,16.4,21.2,19.1C645.7,469.9,619.1,506.9,608,494L608,494z M657.8,444.9
		c-0.7,0.5-13.8-3.9-16.3-16c-2.1-10.4,5-18.5,11.9-22.6c3-2.3,7.5-3.1,10.7-2c3,2.1,3.9,5.7,3.9,9.7c0,2.4-0.3,4.9-0.6,7.2
		c0,0-0.1,0.4-0.1,0.5C665.2,429.9,661.9,437.8,657.8,444.9L657.8,444.9z M762.4,489.4c0,0-2.5,2.2-2.5,2.2
		c-3.5,3.1-7.1,6.5-11.5,4.8c-1.2-0.4-2.1-2-2.3-3.3c-0.2-9,3.9-17.3,7.8-25.5l1-2.1c11.3-18.9,24.5-41.1,43.8-56.6
		c3.3-2.3,6.8-4.3,10.5-2.8c0.9,0.8,1.9,2.2,1.9,3.6c0,0.4-0.4,1.6-0.6,2c-5.4,8.7-10.5,17.9-15.5,26.6
		C785.2,455.8,775.1,473.7,762.4,489.4L762.4,489.4z"/>
</g>
</svg>
