<?xml version="1.0" encoding="utf-8"?>
<!-- Generator: Adobe Illustrator 19.0.1, SVG Export Plug-In . SVG Version: 6.00 Build 0)  -->
<svg version="1.1" id="svg4472" xmlns:rdf="http://www.w3.org/1999/02/22-rdf-syntax-ns#" xmlns:svg="http://www.w3.org/2000/svg"
	 xmlns="http://www.w3.org/2000/svg" xmlns:xlink="http://www.w3.org/1999/xlink" x="0px" y="0px" viewBox="69 268.4 750 257.6"
	 style="enable-background:new 69 268.4 750 257.6;" xml:space="preserve">
<style type="text/css">
	.st0{fill:#91776E;}
</style>
<g id="layer1" transform="translate(4636.4128,-2865.2086)">
	<path id="path4423" class="st0" d="M-4451.1,3258.8h32.2v45.2c-10,3.2-22.7,5-35.9,5c-53.5,0-84.9-45.8-84.9-90.5
		c0-43.9,28.4-74.6,68.1-74.6c25.1,0,39.7,8.5,52.8,20.3v14.8l24.5-24.5c-15.5-10.5-37.9-20.4-70-20.4
		c-70.4,0-102.5,50.4-102.5,91.7c0,58.9,42.9,94.4,96.8,94.4c26.1,0,49.4-4,76.2-11.4V3262c0-2.4,1-4,2.6-5.5l8.5-8.5h-57.5
		L-4451.1,3258.8z"/>
	<path id="path4425" class="st0" d="M-4306.8,3197.3c-40.5,0-65.6,29.6-65.6,61c0,27.1,20.2,59.3,61.2,59.3
		c39.4,0,63.6-29.7,63.6-61.6C-4247.6,3226.2-4271.2,3197.3-4306.8,3197.3L-4306.8,3197.3z M-4313.5,3205.9
		c28.6,0,41.3,37.2,41.3,63.8c0,39.5-29.6,40.2-33.1,40.2c-13.5,0-23-8.2-30.1-18.9c-6.2-9.9-12.3-28.3-12.3-46.3
		c0-17.9,5.9-26.6,15.1-33.1C-4325.2,3206.8-4318.1,3205.9-4313.5,3205.9L-4313.5,3205.9z"/>
	<path id="path4429" class="st0" d="M-4042,3197.3c-35.4,0-54.5,22.4-54.5,47.4c0,19,13.6,40.5,41.8,40.5h7.1c0,0-1.9,4.7-2,9.3
		c0,6.7,2.4,10.5,7.5,16.3c-48.4,2.9-67.9,22.5-67.9,43.5c0,18.4,17.6,36.5,54.6,36.5c43.8,0,66.5-24.3,66.5-48.2
		c0-16.8-8.4-26-29.6-41.9c-6.2-4.9-7.4-7.9-7.4-11.6c0-5.2,3.1-8.6,4.2-9.9c2-2.1,5.5-4.5,6.8-5.7c7.1-6,17.2-15,17.2-32.8
		c0-12.2-5.1-22.8-16.7-32.6h14.2l10.6-10.6L-4042,3197.3L-4042,3197.3z M-4051.7,3205.2c6.4,0,11.8,2.3,17.4,7
		c6.3,5.7,16.3,20.9,16.3,39.7c0,20.3-15.8,25.9-24.3,25.9c-4.2,0-9.2-1.2-13.4-4.1c-9.4-6.1-18.8-22.4-18.8-41.7
		C-4074.5,3214.5-4064.1,3205.2-4051.7,3205.2z M-4037.7,3318.5c2.7,0,4.6,0.2,4.6,0.2s6.4,4.6,10.8,7.9
		c10.4,8.2,16.8,14.4,16.8,25.6c0,15.3-14.2,27.4-37.2,27.4c-25.3,0-44.6-11.8-44.6-31C-4087.3,3332.7-4074.1,3319-4037.7,3318.5
		L-4037.7,3318.5z"/>
	<path id="path4433" class="st0" d="M-3981.9,3314.1h48.6l7.4-7.4l-13.9-1.7c-3.8-0.5-6-3.7-6-6.8v-146.7c0-2.9,1.3-4.4,2.3-5.3
		l8.8-8.8h-41.4l-10.8,10.8h16.1v152c0,2.2-0.7,3.6-2.1,5.1L-3981.9,3314.1z"/>
	<path id="path4435" class="st0" d="M-3867.5,3197.3c-27.1,0-55.9,20.7-55.9,57.8c0,30.6,20.7,62.6,59.3,62.6c9.6,0,17.6-1.2,25-4.6
		c8-3.7,15.6-9.6,21.2-17.1c-10.6,5.3-19.2,8.8-30.6,8.8c-21.8,0-42.7-15.7-50.1-44.6l76.9-31.1
		C-3826.2,3213.2-3838.7,3197.3-3867.5,3197.3L-3867.5,3197.3z M-3872.5,3205.8c14.6,0,25.1,12,25.1,21.3c0,3-1.9,4.6-5.7,6.1
		l-47.2,19.1c0,0-1.3-5.9-1.3-12.4C-3901.6,3213-3882.1,3205.8-3872.5,3205.8L-3872.5,3205.8z"/>
	<path id="path4439" class="st0" d="M-4169.3,3197.3c-40.5,0-65.6,29.6-65.6,61c0,27.1,20.2,59.3,61.2,59.3
		c39.4,0,63.6-29.7,63.6-61.6C-4110.2,3226.2-4133.8,3197.3-4169.3,3197.3L-4169.3,3197.3z M-4176.1,3205.9
		c28.6,0,41.3,37.2,41.3,63.8c0,39.5-29.6,40.2-33.1,40.2c-13.5,0-23-8.2-30.1-18.9c-6.2-9.9-12.3-28.3-12.3-46.3
		c0-17.9,5.9-26.6,15.1-33.1C-4187.8,3206.8-4180.7,3205.9-4176.1,3205.9L-4176.1,3205.9z"/>
</g>
</svg>
