<?xml version="1.0" encoding="utf-8"?>
<!-- Generator: Adobe Illustrator 19.0.1, SVG Export Plug-In . SVG Version: 6.00 Build 0)  -->
<svg version="1.1" id="Layer_1" xmlns="http://www.w3.org/2000/svg" xmlns:xlink="http://www.w3.org/1999/xlink" x="0px" y="0px"
	 viewBox="544 337 300 120" style="enable-background:new 544 337 300 120;" xml:space="preserve">
<style type="text/css">
	.st0{fill:#91776E;}
</style>
<path class="st0" d="M544,337v8.2h58.4V337H544z M610.7,337v8.2h83.2c0,0-8.5-8.2-19.8-8.2H610.7z M710.2,337v8.2h50.3l-3-8.2H710.2
	z M796.6,337l-3,8.2h49.9V337H796.6z M544,353v8.2h58.4V353H544z M610.7,353v8.2h92.9c0,0-1.1-6.3-3-8.2H610.7z M710.2,353v8.2h55.9
	l-2.8-8.2H710.2z M790.7,353l-2.8,8.2h55.6V353H790.7z M560.8,368.9v8.2h25.3v-8.2H560.8z M627.4,368.9v8.2h25.3v-8.2H627.4z
	 M677.3,368.9v8.2h25.3c0,0,1.6-4.3,1.6-8.2H677.3z M727,368.9v8.2h44.8l-3-8.2H727z M785.2,368.9l-3,8.2h45.1v-8.2H785.2z
	 M560.8,384.9v8.2h25.3v-8.2H560.8z M627.4,384.9v8.2H692c0,0,5.4-4.2,7.1-8.2H627.4z M727,384.9v8.2h25.3v-4.6l1.6,4.6h46.3
	l1.7-4.6v4.6h25.3v-8.2h-47.5l-2.5,7l-2.5-7H727z M560.8,400.9v8.2h25.3v-8.2H560.8z M627.4,400.9v8.2h71.7c-1.7-4-7.1-8.2-7.1-8.2
	H627.4z M727,400.9v8.2h25.3v-8.2H727z M756.9,400.9l3.1,8.2h34.7l2.9-8.2H756.9z M801.9,400.9v8.2h25.3v-8.2H801.9z M560.8,416.8
	v8.2h25.3v-8.2H560.8z M627.4,416.8v8.2h25.3v-8.2H627.4z M677.3,416.8v8.2h26.9c0-3.9-1.6-8.2-1.6-8.2H677.3z M727,416.8v8.2h25.3
	v-8.2H727z M762.6,416.8l3,8.2h23.3l3-8.2H762.6z M801.9,416.8v8.2h25.3v-8.2H801.9z M544.5,432.8v8.2h58.4v-8.2H544.5z
	 M610.7,432.8v8.2h89.9c1.9-1.9,3-8.2,3-8.2H610.7z M710.7,432.8v8.2h41.6v-8.2H710.7z M768.4,432.8l3,8.2h11.8l2.9-8.2H768.4z
	 M801.9,432.8v8.2H844v-8.2H801.9z M544.5,448.8v8.2h58.4v-8.2H544.5z M610.7,448.8v8.2h63.5c11.3,0,19.8-8.2,19.8-8.2H610.7z
	 M710.7,448.8v8.2h41.6v-8.2H710.7z M774.1,448.8l2.9,8.2l0.5,0l3-8.2H774.1z M801.9,448.8v8.2H844v-8.2H801.9z"/>
</svg>
