<?xml version="1.0" encoding="utf-8"?>
<!-- Generator: Adobe Illustrator 19.0.1, SVG Export Plug-In . SVG Version: 6.00 Build 0)  -->
<svg version="1.1" id="Layer_1" xmlns="http://www.w3.org/2000/svg" xmlns:xlink="http://www.w3.org/1999/xlink" x="0px" y="0px"
	 viewBox="126 -36 864 864" style="enable-background:new 126 -36 864 864;" xml:space="preserve">
<style type="text/css">
	.st0{fill:#91776E;}
</style>
<path class="st0" d="M332.2,628.9c-1.1-1.9-3.8-6.4-7.6-13c-10.4,8.6-19.4,16-29.7,24.4c-4.7-5.6-9.6-11.5-16.4-19.7
	c11.7-8.9,22.6-17.3,33.8-25.9c12.7,22.4,17.7,25.3,38.5,16.6c16.6-6.9,31.7-17.3,46.5-25.6c-1-4.7-1-5.8-1.5-6.5
	c-22.9-35-18.7-66.7,9.9-96.9c17.3-18.2,26.6-40.4,17.4-65.6c-17.5-48.1-19.2-93.9,15.6-136.2c-26.6,14.7-46.8,56.6-43,89
	c1.9,15.7,5.4,31.3,9.8,46.4c5.8,19.7,2.9,36.7-10,52.9c-15.3,19.2-33.4,37.2-34.9,64.2c-0.2,2.9-4.7,6.5-8,8
	c-15.2,6.9-30.6,13.2-48.1,20.7c0.4,2.8,1.2,8.4,2,13.4c-13,8.9-25.9,17.7-40,27.3c-4.2-6.5-8.6-13.4-13.9-21.5
	c16.2-10.3,31.2-20,46.3-29.6c1.5,0.8,3,1.5,4.5,2.3c-1.6-6.3-1.3-15.7-5.3-18.1c-4.6-2.8-13.9-1.3-19.5,1.6
	c-12.1,6.2-23.1,14.5-36.1,23c-4.5-10.1-8-18.1-11.1-25.2c21.5-10.7,42.4-21.1,65.8-32.8c0.3-4.3,0.7-11.4,1.4-23.1
	c-11.2,3.3-20.6,4.9-28.9,8.7c-9.5,4.2-17.8,10.9-27.1,15.5c-16.3,7.9-20.2,5.8-24.3-11.5c-0.7-2.9-1.3-5.7-1.4-5.9
	c18.1-8.2,35.4-16,52.7-23.9c4.5-2.1,8.9-5.9,13.5-6.1c21.1-0.5,21.5-15.5,23.5-35.3c-15,5.3-27.8,9.3-40.2,14.3
	c-11.9,4.8-22.9,12.4-35.1,15.4c-21,5.2-24.1,1.1-21-16.6c21.2-8.4,40.3-15.9,59.3-23.4c7.8-3.1,15.4-7.3,23.5-9.2
	c25.8-6,25.9-5.6,35.4-32.2c-19.4-5.5-36.8-0.1-54,8.1c-12.5,5.9-25,12.2-38,16.9c-7.7,2.8-16.3,2.8-28,4.6
	c4.8-107.1,44.4-195.7,125.1-261.9c119.3-98,252.9-115.1,391.2-47.1C849,150.3,911,256.8,922.2,395.4c-18.6,3.9-33.4-2.4-48.5-8.6
	c-17.2-7.2-34.8-13.8-52.5-19.6c-5.8-1.9-12.7-0.3-19.2-0.3c3.5,23.5,9.4,29.2,29.7,33.5c9.5,2,18.6,6.4,27.8,9.9
	c19.1,7.4,38.1,15,59.4,23.4c3.1,17.8-0.9,22.4-22.3,16.5c-11.7-3.3-22.2-10.7-33.7-15.4c-12-4.9-24.4-8.8-37.5-13.5
	c-2.1,24.7,0.4,28.1,18.6,33.7c7.5,2.3,14.3,6.8,21.5,10c14.7,6.6,29.5,13,47.2,20.8c-1.8,4.9-2.5,16.3-8.1,19.6
	c-5,3-16.1-1.3-23.1-5.1c-15.1-8.2-28.6-19.7-48.3-19.4c0,8.4,0,16,0,22.2c11.5,5.5,22.1,10.5,32.6,15.8c10,5.1,19.9,10.6,31.7,16.9
	c-2.5,5.9-5.8,13.8-9.6,22.6c-21.2-3.9-32.3-29.7-58-23.3c-1.1,5.1-2.5,11.1-3.2,14.5c17.4,10.6,33.2,20.2,50,30.5
	c-4.7,8-8.8,15-13.3,22.6c-13.9-9.4-27.1-18.4-40.9-27.7c0.8-4,2-9.8,2.8-13.6c-16.3-6.6-31.9-12.4-47-19.3
	c-4.4-2-10.2-7.4-10.3-11.4c-0.8-21.7-13.2-37.5-26.4-52c-20.1-22.2-25.1-45-14.6-73.6c15.1-40.9,7.4-79.1-20.1-113.1
	c-2.2-2.7-4.5-5.4-7-7.7c-1.4-1.3-3.3-2-5.6-3.4c7.4,17.1,15.6,33.1,21.2,50c7.2,22,4.8,44.8-3.7,65.8c-14.2,35.2-8.8,65.4,17,93.1
	c13.4,14.4,24.1,31.2,19.4,52.4c-2.4,10.5-7,20.6-11.8,30.3c-3.3,6.8-4.4,12.6,2.8,16.4c16.9,8.9,33.9,17.9,51.5,25.5
	c8.5,3.6,17.2,0.7,20.3-9.4c3.1-9.7,9-8.2,14.8-4.1c8.4,6,16,13,24.6,20.2c-5.6,7.2-10.4,13.3-15.5,19.8
	c-9.8-8.2-19.1-15.9-29.7-24.7c-4,6.2-6.8,10.6-9.4,14.7c8.8,8.3,16.8,16,25.6,24.3c-7.6,7.2-13.6,13-19.7,18.8
	c-6-7.3-11.5-14-18-22c-5.6,6.6-8.6,10.2-11.5,13.6c5.3,7.1,10,13.2,15.4,20.4c-8.1,5.9-15.1,11-24,17.5
	c-8.8-35.6-46.6-55.5-43-95.6c-9.9,10.9-12.3,24.9-5,40.8c7.2,15.7,16.8,30.3,24.5,45.9c9.3,18.8,8.7,19.6-9.4,28.3
	c-10.7-23.2-21.1-46.5-32.3-69.4c-9.4-19.4-6.7-37.3,4-55.2c8.1-13.6,16.3-27.3,23.5-41.4c9.7-18.8,7.8-37.4-4-54.9
	c-6.1-9-12.1-18.3-19.3-26.5c-18.3-20.6-20.1-43.1-10.5-67.9c8.7-22.3,15.5-45.1,12.6-69.6c-3.6-30.6-17.4-55.1-44.1-72
	c1.9,3,3.8,6,5.8,9c21.7,31.5,27.5,65.3,15.5,101.9c-2.3,7.1-4.8,14.1-7.8,20.9c-13.9,32.2-11.6,61.7,13.3,88.1
	c5.7,6.1,10.3,13.4,14.9,20.4c10.6,16,10.6,32.8,2.2,49.4c-5.4,10.6-11.2,21.1-18.3,30.7c-20.4,27.8-22.4,55.5-4.5,85.8
	c11.2,18.8,18.8,39.7,28.7,61.1c-11,4.2-17.8,6.8-21.5,8.2c-10-23.3-17.9-46.7-29.8-67.9c-16.6-29.6-15-56.3,4.5-83.3
	c7.5-10.4,13.8-21.8,19.8-33.1c10.2-19.4,7.9-38.3-3.8-56.4c-1.9-2.9-3.9-5.8-6.3-8.3c-32.2-31.7-33.6-66.6-13.6-105.8
	c21-41.3,17.6-81.6-12.2-118.2c-4.7-5.8-11.1-10.1-17.3-15.6c7.2,19.5,14.9,36.9,20.2,55.1c6.5,22.5,0.5,44-8.4,65.2
	c-7.3,17.3-14.1,34.9-19.1,53c-5.3,19.4,1.3,37.2,12.7,53.2c4.3,6.1,9,11.9,13.7,17.6c16.9,20.6,18,42.3,4.6,64.8
	c-6.9,11.5-14,22.9-21.5,34c-16.3,24-18,48.6-4.9,74.5c7.2,14.1,13.7,28.6,20.3,43.1c2.2,4.9,4,10.2,5,15.5c4.5,22.2,2,25.4-22.5,28
	c3.3-33.5-12.5-61.3-26.5-89.8c-11.5-23.5-9.7-45.9,4.9-67.6c8.3-12.3,16.4-24.9,24.2-37.6c14.1-23.1,11.3-44.7-4.5-66.4
	c-9.5-13-16.9-27.6-23.6-42.3c-3.8-8.4-8.5-10.3-16.2-7.7c-16.1,5.4-32,6-48.1,0c-8.6-3.2-12.9,0-16.2,9.3
	c-4.5,12.3-10.9,24.5-18.8,35c-23.2,30.8-24.7,47-4.4,79.9c6.3,10.1,12.9,20.1,19.5,29.9c14.9,22.2,15.8,44.5,4.3,68.9
	c-10.1,21.4-17.5,44-25.2,66.4c-2.3,6.7-1.6,14.5-2.3,21.8c-24.4-3.4-27.2-6-20.2-28c5.8-18.3,13.2-36.4,22.3-53.3
	c16-29.5,14.1-56.6-5-83.7c-8.8-12.5-16.7-25.9-23.7-39.5c-8.8-17-5.5-33.7,4.7-49.3c3-4.6,6-9.2,9.8-13.1
	c26.6-28.3,27.9-59.7,12.6-93.7c-10.3-23-21.8-45.5-20.9-72.1c0.9-25.8,9.9-48.1,23.4-70.4c-2.6,1.4-5.6,2.3-7.7,4.2
	c-36.1,31.2-45.1,76-26,123.3c6.8,16.8,14.1,34.4,15.7,52.1c1.1,12.5-6.3,26.1-11.1,38.7c-2.2,5.8-7.4,10.5-11.4,15.6
	c-26,32.9-29.1,54.4-3.8,87.3c29.3,38.1,33.6,73.6,6.3,114.2c-10.1,15.1-13.8,34.5-20.5,52.2c-20.4-5.2-22.4-7.7-14.1-28.9
	c6.1-15.6,14.1-30.6,22.3-45.3c13.8-24.9,13.8-49-2.1-72.9c-7.1-10.7-13.6-22-20.3-33c-13.2-21.7-11.3-42.4,3.9-62.3
	c3.3-4.3,6.2-9.1,10-13c24.3-25.1,26.8-53.6,15.3-85.3c-6-16.7-12-33.8-14.3-51.2c-4.3-31.5,7.6-59.2,26-84.4
	c-28.3,19.1-43.9,46.5-43.9,80c0,19.3,4.8,39.5,11.6,57.7c10.9,29,7.7,52.9-12.3,77.2c-35.3,42.9-36,58.3-4.7,104.8
	c19.4,28.8,22.6,55.4,4.1,85.6c-9.9,16.2-16.1,34.7-24,52.3c-18.3-7.5-19.4-9.4-9.7-29.1c6.4-12.9,14.7-24.8,21.2-37.6
	c7.9-15.5,11.6-31.5,2.2-45.1c-6.8,14.8-13,30.9-21.2,45.9c-8.3,15.1-18.5,29.1-28.6,44.9c-5.4-3.8-12.7-9.1-19.3-13.8
	c-2-12.3,24.2-19.4,1.4-34.6c-5.1,6.6-10.5,13.7-16.5,21.4c-6.7-7.2-12.2-13.1-20-21.5C315.7,646.1,323.4,638.1,332.2,628.9z
	 M471.7,247.9c63.9-21.7,124.7-22.2,187.1,6.7c-3.4-13.2-5.8-22.3-8.3-32c5.5,0.3,9.4,0.8,13.3,0.7c34.7-0.8,54.1-29.6,41.9-61.9
	c-10.2-27-42.8-48.7-71.5-47.7c-27.2,1-45.5,18.2-45.8,43c0,3.8,0,7.7,0,11.6c-16.7,0-32.7,0-48.7,0c0.1-34.5-13.5-51.6-43.2-54.4
	c-30.7-2.9-67.4,22.4-75.7,52c-8.7,31.1,11.1,57,43.8,57.4c4.2,0.1,8.5,0,13.3,0C476.1,231,474.3,237.9,471.7,247.9z M579.8,337.3
	c-10.8-36.4-4.2-57,52.3-48.7c-3.9-24.4-30.2-43.2-62.2-44.4c-37.5-1.4-66.8,16.4-73.2,44.4c59.4-5.7,54.5,7.7,54.5,48.8
	c-5.4-8-18.4-12.1-25.3-8c-4.5,2.7-8.9,0.6-12.9-0.5c-15.6-4.1-20.9-0.3-19.3,16.5c3.1,32.4,17.7,59.4,44.9,77
	c10.1,6.5,25.9,9,37.9,6.9c30.6-5.5,64.7-60,59.4-90.9c-1.5-8.9-5-15-16.1-10.1c-4.2,1.9-10,1.8-14.2,1.5
	C592.9,328.8,585.6,323.7,579.8,337.3z M909.4,372.9c0.9-1.6,1.8-3.3,2.7-4.9c-36.5-41.4-68.9-84.7-64.4-146.6
	c-27.7,14.6-37.1,37.7-45.2,61.7c-27.4-12.9-53.9-20-75.7-10c14.4,17.4,30.6,35.4,45.1,54.8c9.4,12.6,17.6,23.4,35.6,16.5
	c3.7-1.4,9-0.1,13.1,1.3c16.3,5.6,32.3,12.4,48.7,17.6C882.3,367.4,895.9,369.8,909.4,372.9z M282.2,222.5
	c4.3,61.1-28.5,104.3-65.8,146.4c21.6,5.5,37.3-2.3,53.1-9.4c21.3-9.6,42.4-19.5,67.1-13.3c3.2,0.8,8.6-3.2,11.7-6.3
	c16.6-17,32.8-34.4,49.2-51.5c3.2-3.4,6.8-6.4,11.3-10.6c-29.7-15.8-55.5-6.4-81.3,4.9C311.2,242.5,304.6,233.3,282.2,222.5z
	 M537.8,312.2c-6.1-13.2-25.7-20.5-36.5-13.1c-2.5,1.7-3,6.3-4.4,9.6c3.1,1.2,6.1,3.2,9.2,3.3C516.6,312.5,527.2,312.2,537.8,312.2z
	 M593.9,310.4c11.1,1,21.1,2.2,31.2,2.6c2.3,0.1,6.8-2.2,6.8-3.4c0-3.5-0.8-8.2-3.1-10.1C619.6,292,600.3,298.1,593.9,310.4z"/>
<path class="st0" d="M540.6,384.1c15.9,0,32,0,47.8,0C575.7,408,556.3,408.1,540.6,384.1z"/>
<path class="st0" d="M578.7,364.9c-9.1,0-18.3,0-27.4,0c0-1.3-0.1-2.6-0.1-3.9c9.1,0,18.3,0,27.4,0
	C578.6,362.3,578.6,363.6,578.7,364.9z"/>
<path class="st0" d="M183.6,418.7c0-8.2,0-16.3,0-24.5c0.2-0.8,0.5-1.7,0.5-2.5c0.9-10.8,1.6-21.7,2.8-32.5
	c1.7-16.1,4.8-31.9,8.9-47.6c17.7-68.1,51.6-127,101.6-176.6c30.4-30.1,64.9-54.4,103.5-72.8c47.4-22.6,97.4-35,150-36.8
	c0.8,0,1.5-0.2,2.3-0.4c7.5,0,15,0,22.6,0c1.3,0.1,2.7,0.3,4,0.4c3.5,0.2,7,0.3,10.5,0.5c16.3,1,32.4,3.1,48.5,6.3
	c33.4,6.5,65.5,17.2,95.9,32.6c77.8,39.3,136,98.1,174.2,176.5c23.2,47.6,35.6,98.1,37.1,151.1c0,0.8,0.2,1.5,0.4,2.3
	c0,7.8,0,15.7,0,23.5c-0.1,0.8-0.4,1.5-0.4,2.3c-0.1,14.5-1.7,28.9-3.8,43.2c-3.1,21.1-8,41.7-14.7,61.9
	c-19.6,58.9-51.5,110.1-95.9,153.5c-40.1,39.2-86.7,68.1-139.5,86.9c-22.3,7.9-45.1,13.6-68.5,17.1c-12.5,1.9-25,3.2-37.7,3.9
	c-3.5,0.2-7,0.6-10.5,0.8c-6.7,0-13.4,0-20.2,0c-0.9-0.1-1.7-0.3-2.6-0.3c-7.3-0.5-14.5-0.9-21.8-1.5c-14-1.1-27.8-3.2-41.5-6
	c-33.7-6.8-66-17.9-96.5-33.6c-74.2-38.2-130.3-94.6-168.3-169c-15.5-30.3-26.3-62.2-33-95.6c-2.8-13.9-4.9-27.9-6-42
	c-0.5-6.3-0.9-12.6-1.3-18.9C184.1,420.2,183.8,419.4,183.6,418.7z M565.2,773.6c204.2,0.1,369.8-166.9,367.2-372.1
	c-2.5-199.9-165.7-363.3-369-362.4C360.2,40,196.9,205.6,197.9,408.2C198.9,610.1,363,773.6,565.2,773.6z"/>
</svg>
